# xmcd CD database file
#
# Track frame offsets:
#	150
#	14560
#	28220
#	42487
#	69263
#	95575
#	119949
#	133042
#	155772
#	185186
#	211838
#	248267
#	273884
#	314774
#
# Disc length: 4529 seconds
#
# Revision: 0
# Processed by: cddbd v1.5.2PL0 Copyright (c) Steve Scherf et al.
# Submitted via: CDex 1.70beta2
#
DISCID=d511af0e
DTITLE=Sueddeutsche Zeitung - Jazz - Big Bands Sounds
DYEAR=2011
DGENRE=Jazz
TTITLE0=Woody Herman: Rhapsody In Wood 
TTITLE1=Miles Davis: Boplicity
TTITLE2=Stan Kenton: 23°N - 82°W
TTITLE3=Peter Herbolzheimer RC and B: Cherokee 
TTITLE4=WDR Big Band Köln: Jabario
TTITLE5=Helge Sunde and Ensemble Denada: Obstler
TTITLE6=Duke Ellington: Black And Tan Fantasy 
TTITLE7=Count Basie: Jumpin' At The Woodside 
TTITLE8=Jazz at Lincoln Center Orchestra: Mendizorrotza Swing
TTITLE9=Mingus Big Band/The Charles Mingus Orchestra: Tonight At Noon 
TTITLE10=Gil Evans Orchestra: Stratusphunk 
TTITLE11=George Russell and Living Time Orchestra: Event IV 
TTITLE12=Maria Schneider Orchestra: Journey Home 
TTITLE13=Trygve Seim: Prayer
EXTD=YEAR: 2011
EXTT0=
EXTT1=
EXTT2=
EXTT3=
EXTT4=
EXTT5=
EXTT6=
EXTT7=
EXTT8=
EXTT9=
EXTT10=
EXTT11=
EXTT12=
EXTT13=
PLAYORDER=
